<?xml version="1.0" encoding="utf-8"?>
<!-- Generator: Adobe Illustrator 16.0.0, SVG Export Plug-In . SVG Version: 6.00 Build 0)  -->
<!DOCTYPE svg PUBLIC "-//W3C//DTD SVG 1.1//EN" "http://www.w3.org/Graphics/SVG/1.1/DTD/svg11.dtd">
<svg version="1.1" id="iconmonstr" xmlns="http://www.w3.org/2000/svg" xmlns:xlink="http://www.w3.org/1999/xlink" x="0px" y="0px"
	 width="24px" height="24px" viewBox="0 0 24 24" style="enable-background:new 0 0 24 24;" xml:space="preserve">
<style type="text/css">
<![CDATA[
	.st0{fill:#0F1B5F;}
]]>
</style>
<path id="coin-3" class="st0" d="M12,2c5.514,0,10,4.486,10,10c0,5.515-4.486,10-10,10S2,17.515,2,12C2,6.486,6.486,2,12,2z M12,0
	C5.373,0,0,5.373,0,12c0,6.627,5.373,12,12,12s12-5.373,12-12C24,5.373,18.627,0,12,0z M12,3c-4.971,0-9,4.029-9,9s4.029,9,9,9
	s9-4.029,9-9S16.971,3,12,3z M13,16.947V18h-1v-0.998c-1.035-0.018-2.106-0.265-3-0.727l0.455-1.645
	c0.956,0.371,2.229,0.766,3.225,0.54c1.149-0.261,1.385-1.442,0.114-2.011c-0.931-0.434-3.778-0.805-3.778-3.243
	c0-1.363,1.039-2.583,2.984-2.85V6h1v1.018c0.725,0.019,1.535,0.145,2.442,0.42L15.08,9.086c-0.768-0.27-1.616-0.515-2.442-0.465
	c-1.489,0.087-1.62,1.376-0.581,1.916C13.768,11.341,16,11.938,16,14.083C16.002,15.801,14.656,16.715,13,16.947z"/>
</svg>
