<?xml version="1.0" encoding="iso-8859-1"?>
<!-- Generator: Adobe Illustrator 16.0.0, SVG Export Plug-In . SVG Version: 6.00 Build 0)  -->
<!DOCTYPE svg PUBLIC "-//W3C//DTD SVG 1.1//EN" "http://www.w3.org/Graphics/SVG/1.1/DTD/svg11.dtd">
<svg version="1.1" id="&#x421;&#x43B;&#x43E;&#x439;_2"
	 xmlns="http://www.w3.org/2000/svg"  x="0px" y="0px" width="600px" height="600px"
	 viewBox="0 0 600 600" style="enable-background:new 0 0 600 600;" xml:space="preserve">
<g>
	<path style="fill:#0F1B5F;" d="M270.355,144.705h-77.266c-5.523,0-7.415-4.477-4.227-10c3.189-5.523,10.251-10,15.774-10h77.266
		c5.523,0,7.415,4.477,4.226,10C282.94,140.228,275.878,144.705,270.355,144.705z"/>
	<path style="fill:#0F1B5F;" d="M445.214,144.705H300.919c-5.522,0-7.415-4.477-4.227-10c3.189-5.523,10.251-10,15.774-10h144.295
		c5.521,0,7.414,4.477,4.226,10S450.736,144.705,445.214,144.705z"/>
	<path style="fill:#0F1B5F;" d="M393.959,196.973H245.65c-5.523,0-7.415-4.477-4.227-10c3.189-5.523,10.251-10,15.774-10h148.309
		c5.523,0,7.416,4.477,4.227,10C406.544,192.496,399.481,196.973,393.959,196.973z"/>
	<path style="fill:#0F1B5F;" d="M354.955,249.241h-30.879c-5.521,0-7.414-4.477-4.226-10s10.251-10,15.773-10h30.878
		c5.522,0,7.415,4.477,4.227,10C367.539,244.764,360.477,249.241,354.955,249.241z"/>
	<path style="fill:#0F1B5F;" d="M585.176,146.954c-4.879-10.679-14.863-19.157-25.422-21.594c-0.337-0.079-1.473-0.358-2.301-0.485
		s-4.663-0.171-4.771-0.17h-66.355c-5.521,0-12.584,4.477-15.773,10c-3.188,5.523-1.296,10,4.227,10h42.999
		c-4.078,6.192-7.628,14.25-10.096,24.767c0,0-1.491,6.386-1.752,7.501H435.26c-5.523,0-12.586,4.477-15.774,10s-1.296,10,4.227,10
		h77.354c-0.499,1.917-7.48,24.796-10.88,32.113c-0.024,0.052-0.05,0.103-0.074,0.155h-92.855c-5.522,0-12.585,4.477-15.773,10
		c-3.189,5.523-1.297,10,4.227,10h92.125c-4.102,5.207-8.783,10.107-14.177,14.849c-7.853,6.903-14.219,12.821-19.651,18.295
		l9.604,10.312c20.252,21.741,31.404,50.082,31.404,79.804c0,42.389-23.003,81.577-60.031,102.273l-0.813,0.454
		c7.53,2.721,15.547,4.677,23.985,5.821l4.425,0.601l3.4-2.895c1.671-1.422,41.171-35.29,62.771-75.183
		c18.533-34.212,25.605-68.831,21.619-105.835c-1.568-14.533-0.322-26.37,4.173-39.598c3.08-9.124,7.965-19.444,14.941-31.568
		c2.224-3.881,9.179-15.153,10.094-16.59C579.867,193.818,595.413,169.394,585.176,146.954z M529.966,242.322
		c-17.245-1.676-23.747-8.857-14.874-23.733l22.073,8.484L529.966,242.322z"/>
</g>
<g>
	<path style="fill:#9D0D15;" d="M43.21,278.94H8.698c-5.523,0-7.415-4.477-4.227-10c3.189-5.523,10.25-10,15.773-10h34.512
		c5.523,0,7.416,4.477,4.227,10C55.795,274.463,48.733,278.94,43.21,278.94z"/>
	<path style="fill:#9D0D15;" d="M226.038,278.94H72.227c-5.523,0-7.415-4.477-4.227-10c3.189-5.523,10.25-10,15.773-10h153.811
		c5.523,0,7.416,4.477,4.227,10C238.623,274.463,231.561,278.94,226.038,278.94z"/>
	<path style="fill:#9D0D15;" d="M143.998,330.009H43.21c-5.523,0-7.415-4.478-4.227-10c3.188-5.522,10.25-10,15.773-10h100.788
		c5.523,0,7.415,4.478,4.227,10C156.583,325.531,149.521,330.009,143.998,330.009z"/>
	<path style="fill:#9D0D15;" d="M193.089,381.075H99.057c-5.523,0-7.415-4.478-4.227-10s10.25-10,15.773-10h94.032
		c5.523,0,7.415,4.478,4.227,10S198.612,381.075,193.089,381.075z"/>
	<path style="fill:#9D0D15;" d="M451.3,432.089c-2.224-4.287-0.551-9.564,3.736-11.788c3.462-1.796,7.568-1.049,10.192,1.563
		c7.875-15.485,12.191-32.833,12.191-50.784c0-28.452-10.677-55.584-30.06-76.393c-21.142-22.718-51.059-35.748-82.08-35.748
		c-0.663,0-1.323,0.014-1.984,0.025c-0.163-0.008-0.324-0.025-0.489-0.025h-95.595c-5.523,0-12.584,4.477-15.773,10
		c-3.188,5.523-1.296,10,4.227,10h45.78c-11.947,8.304-22.209,18.867-30.163,31.068h-86.509c-5.523,0-12.585,4.478-15.773,10
		c-3.188,5.522-1.296,10,4.227,10h87.711c-3.856,9.764-6.371,20.195-7.336,31.066h-16.673c-5.523,0-12.585,4.478-15.773,10
		s-1.296,10,4.227,10h28.219c5.074,57.163,53.22,102.135,111.68,102.135c19.153,0,38.06-4.919,54.669-14.221
		c14.647-8.187,26.993-19.401,36.449-32.6C454.274,435.71,452.408,434.225,451.3,432.089z M409.917,440.737
		c-4.422,2.294-9.865,0.569-12.159-3.853s-0.568-9.865,3.854-12.159s9.865-0.569,12.159,3.853S414.339,438.443,409.917,440.737z
		 M430.638,394.587c-4.687,2.432-10.456,0.604-12.888-4.084c-2.431-4.686-0.603-10.455,4.084-12.887
		c4.687-2.431,10.456-0.603,12.887,4.083C437.152,386.387,435.324,392.156,430.638,394.587z"/>
</g>
<rect id="_x3C_&#x424;&#x440;&#x430;&#x433;&#x43C;&#x435;&#x43D;&#x442;_x3E_" style="fill:none;" width="600" height="600"/>
</svg>
